<?xml version="1.0" standalone="no"?>
<!DOCTYPE svg PUBLIC "-//W3C//DTD SVG 20010904//EN"
 "http://www.w3.org/TR/2001/REC-SVG-20010904/DTD/svg10.dtd">
<svg version="1.0" xmlns="http://www.w3.org/2000/svg"
 width="2000.000000pt" height="1500.000000pt" viewBox="0 0 2000.000000 1500.000000"
 preserveAspectRatio="xMidYMid meet">

<g transform="translate(0.000000,1500.000000) scale(0.100000,-0.100000)"
fill="#000000" stroke="none">
<path d="M9800 12489 c-1604 -57 -3095 -903 -3983 -2259 -459 -703 -725 -1482
-797 -2340 -14 -161 -14 -619 0 -780 102 -1210 600 -2291 1450 -3140 851 -851
1944 -1355 3150 -1450 173 -14 586 -14 760 0 963 76 1855 412 2624 990 787
591 1405 1439 1718 2358 204 602 288 1173 267 1824 -41 1249 -560 2439 -1454
3333 -395 396 -816 701 -1310 947 -610 305 -1325 492 -1965 514 -80 2 -174 6
-210 7 -36 2 -148 0 -250 -4z m176 -2145 c59 -39 110 -92 160 -164 122 -179
137 -405 39 -601 -37 -73 -55 -92 -79 -83 -21 8 -20 26 4 94 36 102 23 247
-32 354 -31 60 -115 143 -189 187 -54 31 -70 46 -83 80 -45 112 77 202 180
133z m464 -72 c57 -41 100 -178 100 -317 0 -168 -52 -296 -165 -411 -83 -84
-178 -142 -200 -124 -24 20 -19 30 48 94 154 148 182 373 71 572 -38 68 -43
111 -17 155 34 58 106 71 163 31z m-822 -107 c43 -14 105 -42 138 -63 72 -47
169 -150 207 -219 57 -106 89 -322 52 -353 -24 -20 -41 3 -54 69 -18 91 -64
172 -132 236 -97 89 -184 125 -306 126 -87 1 -126 13 -158 50 -45 55 -27 140
37 173 42 21 107 15 216 -19z m1178 -181 c19 -9 41 -29 49 -45 51 -98 -31
-332 -161 -462 -104 -104 -232 -161 -389 -173 -69 -6 -82 -4 -95 11 -23 27 0
49 60 58 86 12 170 59 238 131 94 101 131 196 132 337 0 86 18 120 74 145 41
17 51 17 92 -2z m-1291 -119 c111 -23 208 -77 290 -159 38 -39 83 -97 100
-128 29 -55 29 -58 12 -75 -18 -17 -20 -16 -70 39 -62 67 -112 100 -190 127
-134 46 -240 37 -383 -34 -101 -50 -111 -52 -160 -29 -41 19 -64 59 -64 108 0
116 249 196 465 151z m165 -321 c92 -29 170 -77 170 -103 0 -29 -26 -32 -82
-10 -197 77 -441 -18 -555 -217 -20 -34 -48 -69 -63 -78 -62 -36 -137 -9 -166
61 -24 57 -5 102 84 191 173 174 387 228 612 156z m1322 -21 c11 -10 27 -33
35 -51 24 -56 4 -101 -85 -190 -194 -196 -454 -242 -691 -124 -84 42 -104 63
-81 87 14 13 21 13 70 -6 196 -74 442 15 546 199 33 57 62 91 89 103 30 13 94
3 117 -18z m-1201 -163 c29 -16 24 -49 -8 -55 -148 -30 -212 -63 -292 -151
-84 -92 -120 -189 -121 -326 0 -72 -2 -80 -31 -112 -37 -43 -81 -54 -132 -33
-67 29 -84 112 -48 237 57 201 219 370 401 420 92 26 202 35 231 20z m49 -133
c0 -5 -28 -37 -63 -71 -154 -151 -182 -373 -71 -573 52 -93 41 -163 -30 -197
-43 -20 -59 -20 -102 0 -88 42 -144 306 -99 477 33 125 115 247 218 324 77 57
117 75 135 61 6 -6 12 -15 12 -21z m62 -142 c-68 -207 19 -430 213 -545 60
-35 84 -60 95 -98 18 -68 -38 -142 -110 -142 -107 0 -279 203 -325 385 -32
127 -13 279 51 407 37 74 61 95 83 73 12 -12 11 -23 -7 -80z m273 30 c151
-158 389 -189 575 -74 63 38 99 45 142 25 81 -39 91 -145 18 -203 -8 -7 -51
-24 -95 -39 -225 -72 -450 -20 -610 140 -84 85 -136 175 -116 200 7 9 16 16
19 16 3 0 33 -29 67 -65z m-157 23 c5 -7 15 -40 22 -73 26 -130 129 -258 255
-316 65 -30 184 -54 223 -44 62 15 142 -47 142 -111 0 -85 -57 -130 -153 -120
-227 24 -441 194 -508 405 -26 82 -37 234 -19 256 15 18 24 19 38 3z m277
-1568 c217 -59 340 -184 391 -396 23 -93 22 -302 0 -407 -41 -190 -93 -335
-216 -597 -193 -415 -367 -939 -399 -1207 -16 -129 4 -206 55 -219 117 -29
301 93 620 411 110 110 231 238 268 285 241 303 437 687 476 931 7 42 11 127
9 190 -4 97 -8 122 -29 164 -26 53 -22 50 -148 84 -53 15 -78 55 -47 77 43 32
157 -11 245 -93 111 -102 151 -191 151 -335 1 -319 -285 -841 -704 -1284 -395
-419 -856 -644 -1017 -498 -69 63 -90 179 -65 367 33 250 136 580 340 1087
144 359 192 496 240 693 49 197 60 297 47 402 -18 136 -59 195 -170 240 -281
114 -638 38 -1037 -222 -432 -282 -712 -672 -781 -1088 -55 -339 95 -618 371
-690 77 -20 211 -19 289 1 191 49 402 226 506 425 54 103 73 190 68 310 -3 86
-7 102 -33 145 -21 33 -45 55 -78 72 l-48 25 -86 -17 c-136 -27 -139 14 -5 64
190 72 350 -20 392 -225 39 -189 -48 -395 -250 -595 -296 -293 -665 -388 -944
-243 -107 56 -239 192 -294 303 -112 228 -113 471 -3 752 166 423 554 787
1056 991 262 107 361 128 585 123 130 -3 182 -8 245 -26z"/>
</g>
</svg>
